<?xml version="1.0" standalone="no"?>
<!DOCTYPE svg PUBLIC "-//W3C//DTD SVG 20010904//EN"
 "http://www.w3.org/TR/2001/REC-SVG-20010904/DTD/svg10.dtd">
<svg version="1.0" xmlns="http://www.w3.org/2000/svg"
 width="1000.000000pt" height="1000.000000pt" viewBox="0 0 1000.000000 1000.000000"
 preserveAspectRatio="xMidYMid meet">
<metadata>
Created by potrace 1.14, written by Peter Selinger 2001-2017
</metadata>
<g transform="translate(0.000000,1000.000000) scale(0.100000,-0.100000)"
fill="#000000" stroke="none">
<path d="M5015 8100 c-2 -4 -15 -5 -27 -3 -28 5 -126 -28 -183 -62 -50 -29
-139 -123 -164 -174 -46 -92 -64 -164 -63 -256 1 -139 40 -215 261 -510 95
-127 177 -253 194 -297 7 -20 -36 -25 -268 -33 -189 -6 -260 -11 -310 -22 -22
-5 -57 -9 -77 -8 -20 0 -34 -3 -32 -7 3 -4 -4 -8 -15 -8 -10 0 -27 -3 -37 -7
-12 -4 -15 -3 -10 5 5 9 0 9 -20 2 -15 -6 -29 -8 -32 -5 -3 3 -16 -2 -29 -10
-17 -12 -23 -12 -23 -3 0 10 -3 10 -9 -1 -5 -7 -13 -11 -18 -8 -5 3 -28 -1
-52 -9 -23 -8 -47 -12 -52 -9 -5 4 -9 2 -9 -4 0 -5 -11 -8 -25 -7 -14 2 -30
-3 -36 -10 -6 -7 -17 -10 -24 -8 -7 3 -23 0 -36 -6 -12 -7 -36 -14 -53 -17
-17 -3 -35 -8 -40 -13 -5 -5 -15 -6 -22 -3 -8 3 -20 0 -28 -6 -7 -6 -16 -8
-19 -4 -4 3 -7 1 -7 -6 0 -7 -5 -9 -10 -6 -11 7 -63 -8 -120 -33 -19 -9 -38
-15 -42 -14 -4 1 -20 -3 -35 -10 -15 -6 -31 -12 -35 -13 -5 -2 -9 -3 -10 -5
-2 -1 -10 -3 -18 -5 -8 -1 -33 -11 -55 -20 -22 -10 -45 -19 -51 -20 -34 -8
-54 -17 -54 -26 0 -6 -4 -8 -9 -5 -5 3 -11 -1 -15 -9 -3 -8 -12 -12 -20 -9
-17 6 -76 -16 -76 -28 0 -5 -3 -7 -7 -6 -10 3 -57 -13 -63 -21 -3 -3 -33 -20
-67 -36 -35 -17 -63 -34 -63 -38 0 -5 -4 -6 -8 -3 -5 3 -18 -3 -28 -12 -10
-10 -23 -18 -29 -19 -26 -1 -405 -248 -405 -263 0 -6 -4 -9 -8 -6 -20 12 -355
-276 -536 -462 -50 -52 -109 -113 -132 -135 -46 -47 -199 -229 -199 -237 0 -3
-12 -19 -28 -35 -15 -17 -40 -48 -55 -70 -15 -22 -30 -41 -34 -43 -5 -2 -8 -8
-8 -13 0 -6 -9 -20 -21 -32 -25 -27 -159 -229 -184 -277 -53 -104 -68 -137
-100 -222 -52 -137 -74 -176 -135 -243 -31 -33 -89 -101 -130 -151 -41 -49
-88 -106 -103 -125 -58 -69 -170 -230 -233 -336 -79 -131 -194 -363 -223 -454
l-22 -67 52 -116 c29 -64 56 -116 59 -116 4 0 11 26 15 58 11 89 69 252 125
354 83 150 85 153 91 158 3 3 13 19 22 35 8 17 25 41 37 55 12 14 29 39 37 55
9 17 25 42 37 56 12 14 28 36 36 49 13 19 38 53 88 115 5 6 41 48 82 95 40 47
81 93 89 103 41 47 101 108 101 103 0 -4 10 2 22 14 12 11 29 20 37 20 14 0
14 1 1 10 -9 6 -10 10 -3 10 6 0 15 15 18 32 4 18 14 41 22 50 8 9 17 34 19
55 9 77 25 137 48 182 12 25 26 58 29 73 4 15 13 33 20 40 7 7 26 40 43 73 16
33 39 69 51 81 13 11 20 24 16 27 -3 4 -1 7 5 7 7 0 12 9 12 20 0 12 7 20 17
20 9 0 14 3 11 6 -6 6 7 24 51 69 13 14 20 25 15 25 -5 0 -2 5 6 10 15 9 16
13 19 46 0 9 6 12 13 8 7 -5 9 -2 5 9 -3 9 1 21 11 29 13 11 14 11 7 -1 -5
-10 -4 -12 3 -7 7 4 12 14 12 22 0 8 7 14 15 14 14 0 20 12 16 33 -1 5 3 6 8
2 9 -5 35 29 36 47 0 14 15 21 15 7 1 -10 4 -9 11 4 6 9 15 14 21 11 7 -5 9
-1 5 9 -3 9 -2 19 4 22 5 4 7 10 4 15 -3 4 3 14 12 21 10 8 14 9 10 2 -4 -6
-3 -14 1 -17 5 -3 14 11 20 32 11 37 61 79 76 65 4 -4 4 0 0 10 -5 13 -2 16
10 11 14 -6 21 5 17 29 0 4 7 7 16 7 9 0 14 3 10 6 -8 8 18 34 33 34 6 0 8 5
5 10 -3 6 -1 10 5 10 6 0 8 6 4 13 -5 9 -4 9 6 0 14 -13 43 -6 34 8 -3 5 3 9
13 10 10 0 13 3 6 6 -21 8 -15 22 8 18 16 -3 19 0 13 17 -5 17 -3 20 11 14 13
-5 16 -2 11 9 -3 9 -2 13 4 10 13 -8 49 25 43 40 -2 7 10 20 27 28 16 9 28 11
25 6 -4 -5 -1 -9 4 -9 6 0 11 9 11 20 0 11 7 23 15 26 8 4 15 13 15 22 0 12 3
13 12 4 16 -16 28 -15 28 3 0 8 3 14 8 12 4 -1 20 8 36 21 16 12 25 22 21 22
-4 0 -1 8 6 17 12 15 12 16 -1 8 -12 -6 -13 -5 -3 5 10 11 15 11 29 -1 16 -12
17 -12 11 4 -4 11 -2 17 8 17 8 0 15 5 15 10 0 6 7 10 15 10 8 0 24 9 35 20
12 12 26 18 32 14 7 -4 8 -3 4 4 -4 7 -2 12 4 12 7 0 10 6 7 14 -4 9 2 13 16
12 15 -1 26 8 35 28 7 16 15 26 19 22 4 -3 1 -12 -5 -18 -7 -7 -12 -17 -12
-22 0 -6 5 -3 11 7 6 9 15 14 21 11 6 -4 8 -3 5 2 -3 6 -2 16 4 24 7 13 9 13
9 0 1 -8 5 -5 11 8 5 13 13 21 18 18 5 -4 17 1 25 10 12 11 16 12 16 2 0 -7
11 -1 24 14 12 15 26 25 30 21 3 -3 6 -2 6 4 0 10 28 23 57 27 6 0 24 13 40
27 16 14 33 24 39 22 6 -2 21 6 34 17 13 11 27 20 33 20 5 0 7 6 4 13 -4 10 3
12 23 9 15 -2 31 1 34 7 4 6 15 11 25 11 10 0 26 9 35 19 10 11 25 17 34 14
11 -5 13 -3 7 7 -6 9 -4 11 4 6 7 -5 21 0 32 10 10 9 19 14 19 10 0 -3 10 0
23 9 13 8 27 12 30 8 4 -3 17 5 30 19 12 13 29 22 36 20 10 -3 11 0 5 9 -6 12
-5 12 8 1 11 -9 18 -10 23 -2 3 5 15 10 26 10 10 0 19 4 19 10 0 5 6 7 14 4 8
-3 19 3 26 16 9 16 15 19 25 10 9 -8 15 -8 20 0 3 6 10 8 15 5 5 -3 11 -1 15
4 3 5 14 8 25 6 12 -2 20 2 20 10 0 8 7 11 18 8 10 -2 35 5 55 16 24 13 39 17
43 10 4 -8 9 -7 14 1 8 12 15 14 93 26 20 4 37 10 37 14 0 5 11 7 25 5 14 -1
25 2 25 8 0 5 9 7 20 4 11 -3 18 -2 15 2 -2 4 12 9 33 10 20 1 43 3 50 3 6 1
12 5 12 10 0 5 4 7 9 3 5 -3 31 0 58 6 73 16 86 19 116 21 15 1 27 5 27 9 0 3
12 5 28 4 15 -1 40 2 55 6 15 4 58 11 95 14 37 4 75 9 84 11 34 10 198 16 443
17 276 2 408 -6 565 -33 30 -5 78 -12 105 -15 250 -28 696 -145 900 -236 28
-12 164 -68 200 -82 17 -7 32 -15 35 -18 3 -3 42 -23 88 -44 45 -22 82 -43 82
-47 0 -4 4 -8 10 -8 20 0 293 -172 400 -252 79 -60 216 -171 290 -236 115
-102 368 -354 404 -402 16 -22 33 -37 37 -34 4 2 9 -2 11 -11 2 -8 22 -36 46
-62 55 -63 175 -221 236 -314 27 -41 62 -93 77 -115 16 -23 25 -44 22 -48 -3
-3 -2 -6 4 -6 6 0 14 -11 17 -25 3 -13 19 -46 34 -72 24 -42 36 -75 73 -197 5
-15 6 -38 3 -50 -9 -36 8 -62 70 -110 107 -83 301 -320 476 -583 110 -164 217
-348 227 -388 1 -5 19 -60 41 -122 21 -61 37 -119 36 -127 -1 -9 2 -16 7 -16
5 0 9 -12 9 -27 1 -25 4 -23 27 22 67 128 105 229 98 265 -6 36 -35 111 -46
120 -3 3 -12 22 -18 43 -7 20 -17 37 -23 37 -6 0 -9 3 -6 6 14 13 -156 306
-251 434 -106 143 -271 341 -374 448 -33 35 -61 71 -62 80 -3 36 -49 171 -57
166 -4 -3 -8 7 -8 23 0 15 -9 42 -20 58 -11 17 -36 62 -54 100 -19 39 -55 99
-80 135 -25 36 -69 100 -98 142 -29 43 -63 83 -76 89 -12 7 -18 15 -12 19 5 3
1 13 -10 23 -11 9 -20 13 -21 9 0 -4 -9 10 -18 31 -10 21 -22 39 -27 40 -5 1
-8 6 -6 10 1 5 -2 6 -8 2 -5 -3 -10 -1 -10 5 0 6 -4 9 -9 6 -5 -3 -12 1 -15
10 -3 8 -2 12 4 9 6 -3 10 -2 10 3 0 5 -11 14 -25 20 -15 7 -25 20 -25 33 0
15 -5 19 -15 15 -9 -3 -15 0 -15 10 0 8 -4 12 -10 9 -5 -3 -7 0 -5 7 3 8 -23
43 -60 82 -36 37 -65 65 -65 62 0 -3 -9 3 -20 14 -11 11 -20 23 -20 26 0 3
-43 49 -95 102 -52 53 -95 93 -95 90 0 -4 -11 3 -24 15 -14 12 -50 45 -81 72
-32 28 -65 57 -74 65 -23 21 -74 62 -103 83 -14 10 -40 31 -58 47 -19 17 -37
30 -41 30 -4 0 -14 6 -21 13 -17 16 -135 97 -141 97 -3 0 -40 24 -83 53 -94
63 -176 109 -335 188 -114 57 -398 177 -429 182 -8 2 -20 6 -27 10 -23 14
-292 98 -329 102 -12 2 -31 8 -43 14 -11 7 -21 10 -21 7 0 -2 -23 2 -52 9 -28
8 -55 12 -60 9 -4 -3 -8 0 -8 6 0 6 -5 8 -10 5 -6 -4 -18 -1 -27 7 -14 11 -16
11 -8 -2 8 -13 6 -13 -8 -2 -9 8 -29 16 -44 18 -15 2 -37 6 -48 8 -89 19 -153
29 -250 40 -196 22 -194 21 -167 57 60 79 132 256 161 399 29 137 25 256 -11
400 -26 103 -81 240 -100 248 -5 2 -8 9 -8 15 0 13 -48 74 -94 121 -63 63
-301 149 -321 116z m164 -238 c57 -46 91 -99 154 -242 11 -25 21 -54 23 -65 2
-11 11 -54 20 -95 30 -135 2 -374 -56 -495 -21 -44 -86 -125 -99 -125 -5 0
-32 46 -60 101 -49 95 -140 237 -182 285 -11 11 -19 25 -19 32 0 6 -6 15 -13
19 -15 10 -150 215 -153 233 0 3 -8 23 -17 44 -21 48 -30 147 -16 183 11 30
60 78 101 99 15 8 28 20 28 26 0 6 3 8 6 5 4 -3 15 -2 26 4 34 18 101 28 162
24 47 -4 68 -11 95 -33z m206 -1052 c-10 -11 -21 -18 -23 -15 -3 3 3 12 14 20
27 20 30 18 9 -5z"/>
<path d="M1975 5260 c-3 -5 -1 -10 4 -10 6 0 11 5 11 10 0 6 -2 10 -4 10 -3 0
-8 -4 -11 -10z"/>
<path d="M3356 5170 c-60 -19 -104 -89 -107 -171 -3 -79 42 -118 147 -127 48
-3 69 -1 88 12 31 20 76 111 76 153 0 82 -119 160 -204 133z"/>
<path d="M4689 5176 c-2 -2 -69 -7 -149 -11 -80 -3 -158 -8 -175 -10 -16 -2
-50 -7 -75 -10 -25 -3 -56 -8 -70 -11 -14 -3 -41 -8 -60 -11 -53 -8 -82 -25
-102 -60 -52 -88 48 -138 313 -159 120 -9 1091 -10 1233 0 106 6 145 11 234
30 45 10 91 30 86 38 -3 4 -1 8 4 8 10 0 23 37 28 76 3 26 -43 55 -106 66
-107 19 -171 27 -260 33 -52 3 -111 8 -130 11 -43 6 -765 16 -771 10z"/>
<path d="M6562 5172 c-38 -6 -99 -72 -112 -121 -10 -37 -9 -51 5 -87 24 -63
65 -89 143 -91 84 -2 114 14 142 79 55 128 -37 243 -178 220z"/>
</g>
</svg>
